<svg xmlns="http://www.w3.org/2000/svg" xmlns:xlink="http://www.w3.org/1999/xlink" width="500" zoomAndPan="magnify" viewBox="0 0 375 374.999991" height="500" preserveAspectRatio="xMidYMid meet" version="1.0"><defs><g/></defs><rect x="-37.5" width="450" fill="#ffffff" y="-37.499999" height="449.999989" fill-opacity="1"/><rect x="-37.5" width="450" fill="#ffffff" y="-37.499999" height="449.999989" fill-opacity="1"/><path fill="#2e72b8" d="M 147.65625 301.417969 L 238.894531 210.0625 C 269.855469 179.0625 269.855469 128.808594 238.894531 97.804688 L 286.699219 49.941406 C 345.019531 108.335938 345.019531 203.015625 286.699219 261.414062 C 248.980469 299.183594 196.09375 312.511719 147.65625 301.417969 Z M 147.65625 301.417969 " fill-opacity="1" fill-rule="nonzero"/><path fill="#2b4c9a" d="M 147.648438 301.410156 L 181.09375 267.925781 L 191.621094 257.382812 L 214.546875 301.425781 C 187.171875 305.378906 173.382812 305.644531 147.648438 301.410156 Z M 147.648438 301.410156 " fill-opacity="1" fill-rule="nonzero"/><path fill="#1eb8d1" d="M 211.703125 186.558594 C 194.667969 203.476562 167.15625 203.367188 150.257812 186.304688 C 133.355469 169.246094 133.46875 141.703125 150.507812 124.78125 C 167.542969 107.859375 195.054688 107.972656 211.953125 125.03125 C 228.847656 142.089844 228.734375 169.640625 211.703125 186.558594 Z M 326.664062 189.160156 C 337.742188 140.664062 324.429688 87.707031 286.707031 49.933594 C 255.574219 18.773438 214.128906 4.242188 173.378906 6.34375 C 144.085938 7.859375 130.386719 43.355469 151.132812 64.125 L 151.96875 64.964844 C 158.546875 71.550781 167.589844 74.886719 176.886719 74.601562 C 197.992188 73.941406 219.304688 81.675781 235.417969 97.804688 Z M 100.132812 151.445312 C 100.421875 142.132812 97.089844 133.082031 90.511719 126.496094 L 89.671875 125.65625 C 68.929688 104.886719 33.476562 118.601562 31.964844 147.929688 C 29.863281 188.734375 44.375 230.234375 75.5 261.402344 C 113.226562 299.175781 166.113281 312.503906 214.542969 301.410156 L 123.308594 210.050781 C 107.203125 193.925781 99.476562 172.578125 100.132812 151.445312 Z M 100.132812 151.445312 " fill-opacity="1" fill-rule="nonzero"/><g fill="#2b4c9a" fill-opacity="1"><g transform="translate(76.304115, 346.812235)"><g><path d="M 11.984375 0.390625 C 9.398438 0.390625 7.125 -0.242188 5.15625 -1.515625 C 3.195312 -2.796875 1.738281 -4.351562 0.78125 -6.1875 L 6.140625 -9.53125 C 6.703125 -8.382812 7.488281 -7.457031 8.5 -6.75 C 9.519531 -6.050781 10.703125 -5.703125 12.046875 -5.703125 C 13.191406 -5.703125 14.082031 -5.945312 14.71875 -6.4375 C 15.351562 -6.925781 15.671875 -7.582031 15.671875 -8.40625 C 15.671875 -9.257812 15.34375 -9.945312 14.6875 -10.46875 C 14.03125 -10.988281 13.1875 -11.425781 12.15625 -11.78125 C 11.125 -12.144531 10.023438 -12.53125 8.859375 -12.9375 C 7.703125 -13.351562 6.609375 -13.890625 5.578125 -14.546875 C 4.546875 -15.203125 3.703125 -16.050781 3.046875 -17.09375 C 2.390625 -18.144531 2.0625 -19.503906 2.0625 -21.171875 C 2.0625 -23.140625 2.519531 -24.765625 3.4375 -26.046875 C 4.351562 -27.328125 5.539062 -28.285156 7 -28.921875 C 8.457031 -29.554688 9.957031 -29.875 11.5 -29.875 C 13.332031 -29.875 15.035156 -29.488281 16.609375 -28.71875 C 18.179688 -27.945312 19.507812 -26.941406 20.59375 -25.703125 L 16.265625 -21.578125 C 15.546875 -22.390625 14.773438 -23.015625 13.953125 -23.453125 C 13.140625 -23.898438 12.304688 -24.125 11.453125 -24.125 C 10.660156 -24.125 9.984375 -23.925781 9.421875 -23.53125 C 8.867188 -23.144531 8.59375 -22.523438 8.59375 -21.671875 C 8.59375 -20.816406 8.921875 -20.144531 9.578125 -19.65625 C 10.234375 -19.164062 11.078125 -18.738281 12.109375 -18.375 C 13.140625 -18.019531 14.226562 -17.628906 15.375 -17.203125 C 16.519531 -16.773438 17.609375 -16.21875 18.640625 -15.53125 C 19.679688 -14.84375 20.523438 -13.929688 21.171875 -12.796875 C 21.828125 -11.671875 22.15625 -10.191406 22.15625 -8.359375 C 22.15625 -6.523438 21.6875 -4.953125 20.75 -3.640625 C 19.820312 -2.328125 18.585938 -1.328125 17.046875 -0.640625 C 15.515625 0.046875 13.828125 0.390625 11.984375 0.390625 Z M 11.984375 0.390625 "/></g></g></g><g fill="#2b4c9a" fill-opacity="1"><g transform="translate(98.80812, 346.812235)"><g><path d="M 22.90625 -9.875 L 22.90625 -8.796875 L 7.859375 -8.796875 C 7.992188 -7.390625 8.4375 -6.285156 9.1875 -5.484375 C 9.9375 -4.679688 11.019531 -4.28125 12.4375 -4.28125 C 14.59375 -4.28125 15.96875 -5.113281 16.5625 -6.78125 L 22.609375 -6.78125 C 22.117188 -4.65625 20.992188 -2.925781 19.234375 -1.59375 C 17.484375 -0.269531 15.25 0.390625 12.53125 0.390625 C 10.332031 0.390625 8.40625 -0.03125 6.75 -0.875 C 5.101562 -1.726562 3.816406 -2.925781 2.890625 -4.46875 C 1.972656 -6.007812 1.515625 -7.796875 1.515625 -9.828125 C 1.515625 -11.890625 1.972656 -13.691406 2.890625 -15.234375 C 3.816406 -16.773438 5.097656 -17.96875 6.734375 -18.8125 C 8.367188 -19.664062 10.234375 -20.09375 12.328125 -20.09375 C 14.460938 -20.09375 16.316406 -19.664062 17.890625 -18.8125 C 19.460938 -17.96875 20.691406 -16.78125 21.578125 -15.25 C 22.460938 -13.726562 22.90625 -11.9375 22.90625 -9.875 Z M 12.4375 -15.28125 C 11.320312 -15.28125 10.425781 -15.039062 9.75 -14.5625 C 9.082031 -14.09375 8.582031 -13.429688 8.25 -12.578125 L 16.40625 -12.578125 C 16.082031 -13.429688 15.597656 -14.09375 14.953125 -14.5625 C 14.316406 -15.039062 13.476562 -15.28125 12.4375 -15.28125 Z M 12.4375 -15.28125 "/></g></g></g><g fill="#2b4c9a" fill-opacity="1"><g transform="translate(122.393114, 346.812235)"><g><path d="M 24.8125 -5.109375 L 25.703125 -5.109375 L 25.703125 0 C 25.472656 0.09375 25.21875 0.179688 24.9375 0.265625 C 24.65625 0.347656 24.351562 0.390625 24.03125 0.390625 C 22.71875 0.390625 21.535156 0.0859375 20.484375 -0.515625 C 19.441406 -1.117188 18.609375 -1.929688 17.984375 -2.953125 C 17.203125 -1.929688 16.242188 -1.117188 15.109375 -0.515625 C 13.984375 0.0859375 12.695312 0.390625 11.25 0.390625 C 9.445312 0.390625 7.804688 -0.0664062 6.328125 -0.984375 C 4.859375 -1.898438 3.6875 -3.128906 2.8125 -4.671875 C 1.945312 -6.210938 1.515625 -7.929688 1.515625 -9.828125 C 1.515625 -11.722656 1.945312 -13.441406 2.8125 -14.984375 C 3.6875 -16.523438 4.859375 -17.753906 6.328125 -18.671875 C 7.804688 -19.585938 9.445312 -20.046875 11.25 -20.046875 C 12.394531 -20.046875 13.4375 -19.859375 14.375 -19.484375 C 15.3125 -19.109375 16.140625 -18.59375 16.859375 -17.9375 L 16.859375 -19.65625 L 23.09375 -19.65625 L 23.09375 -7.03125 C 23.09375 -6.207031 23.269531 -5.679688 23.625 -5.453125 C 23.988281 -5.222656 24.382812 -5.109375 24.8125 -5.109375 Z M 12.484375 -5.15625 C 13.753906 -5.15625 14.847656 -5.601562 15.765625 -6.5 C 16.691406 -7.40625 17.15625 -8.515625 17.15625 -9.828125 C 17.15625 -11.140625 16.691406 -12.242188 15.765625 -13.140625 C 14.847656 -14.046875 13.753906 -14.5 12.484375 -14.5 C 11.171875 -14.5 10.0625 -14.046875 9.15625 -13.140625 C 8.257812 -12.242188 7.8125 -11.140625 7.8125 -9.828125 C 7.8125 -8.515625 8.257812 -7.40625 9.15625 -6.5 C 10.0625 -5.601562 11.171875 -5.15625 12.484375 -5.15625 Z M 12.484375 -5.15625 "/></g></g></g><g fill="#2b4c9a" fill-opacity="1"><g transform="translate(148.041819, 346.812235)"><g><path d="M 14.6875 -20.046875 C 14.988281 -20.046875 15.273438 -20.03125 15.546875 -20 C 15.828125 -19.96875 16.082031 -19.921875 16.3125 -19.859375 L 16.3125 -14.296875 C 16.082031 -14.359375 15.8125 -14.40625 15.5 -14.4375 C 15.1875 -14.476562 14.851562 -14.5 14.5 -14.5 C 12.957031 -14.5 11.6875 -14.054688 10.6875 -13.171875 C 9.6875 -12.285156 9.1875 -11.023438 9.1875 -9.390625 L 9.1875 0 L 2.90625 0 L 2.90625 -19.65625 L 9.1875 -19.65625 L 9.1875 -16.953125 C 9.84375 -17.898438 10.632812 -18.648438 11.5625 -19.203125 C 12.5 -19.765625 13.539062 -20.046875 14.6875 -20.046875 Z M 14.6875 -20.046875 "/></g></g></g><g fill="#2b4c9a" fill-opacity="1"><g transform="translate(163.470247, 346.812235)"><g><path d="M 12.484375 0.390625 C 10.285156 0.390625 8.367188 -0.0507812 6.734375 -0.9375 C 5.097656 -1.820312 3.816406 -3.03125 2.890625 -4.5625 C 1.972656 -6.101562 1.515625 -7.859375 1.515625 -9.828125 C 1.515625 -11.796875 1.972656 -13.546875 2.890625 -15.078125 C 3.816406 -16.617188 5.097656 -17.832031 6.734375 -18.71875 C 8.367188 -19.601562 10.285156 -20.046875 12.484375 -20.046875 C 15.429688 -20.046875 17.851562 -19.265625 19.75 -17.703125 C 21.65625 -16.148438 22.820312 -14.148438 23.25 -11.703125 L 16.75 -11.703125 C 16.425781 -12.546875 15.882812 -13.210938 15.125 -13.703125 C 14.375 -14.203125 13.492188 -14.46875 12.484375 -14.5 C 11.140625 -14.46875 10.023438 -14.015625 9.140625 -13.140625 C 8.253906 -12.273438 7.8125 -11.171875 7.8125 -9.828125 C 7.8125 -8.515625 8.253906 -7.414062 9.140625 -6.53125 C 10.023438 -5.644531 11.140625 -5.1875 12.484375 -5.15625 C 13.492188 -5.1875 14.375 -5.457031 15.125 -5.96875 C 15.882812 -6.476562 16.425781 -7.140625 16.75 -7.953125 L 23.25 -7.953125 C 22.820312 -5.503906 21.65625 -3.5 19.75 -1.9375 C 17.851562 -0.382812 15.429688 0.390625 12.484375 0.390625 Z M 12.484375 0.390625 "/></g></g></g><g fill="#2b4c9a" fill-opacity="1"><g transform="translate(187.055239, 346.812235)"><g><path d="M 14.6875 -20.046875 C 16.03125 -20.046875 17.234375 -19.707031 18.296875 -19.03125 C 19.367188 -18.363281 20.222656 -17.457031 20.859375 -16.3125 C 21.492188 -15.164062 21.8125 -13.875 21.8125 -12.4375 L 21.8125 0 L 15.53125 0 L 15.53125 -11.40625 C 15.53125 -12.25 15.25 -12.972656 14.6875 -13.578125 C 14.132812 -14.191406 13.414062 -14.5 12.53125 -14.5 C 11.582031 -14.5 10.785156 -14.144531 10.140625 -13.4375 C 9.503906 -12.738281 9.1875 -11.960938 9.1875 -11.109375 L 9.1875 0 L 2.90625 0 L 2.90625 -33.65625 L 9.1875 -33.65625 L 9.1875 -17.4375 C 9.875 -18.257812 10.691406 -18.898438 11.640625 -19.359375 C 12.597656 -19.816406 13.613281 -20.046875 14.6875 -20.046875 Z M 14.6875 -20.046875 "/></g></g></g><g fill="#2b4c9a" fill-opacity="1"><g transform="translate(210.54196, 346.812235)"><g><path d="M 20.890625 -23.78125 L 9.625 -23.78125 L 9.625 -17.59375 L 19.265625 -17.59375 L 19.265625 -11.890625 L 9.625 -11.890625 L 9.625 -5.703125 L 20.890625 -5.703125 L 20.890625 0 L 3.140625 0 L 3.140625 -29.484375 L 20.890625 -29.484375 Z M 20.890625 -23.78125 "/></g></g></g><g fill="#2b4c9a" fill-opacity="1"><g transform="translate(232.652881, 346.812235)"><g><path d="M 14.796875 -20.046875 C 16.097656 -20.046875 17.273438 -19.707031 18.328125 -19.03125 C 19.378906 -18.363281 20.222656 -17.457031 20.859375 -16.3125 C 21.492188 -15.164062 21.8125 -13.875 21.8125 -12.4375 L 21.8125 0 L 15.578125 0 L 15.578125 -11.40625 C 15.578125 -12.289062 15.289062 -13.023438 14.71875 -13.609375 C 14.144531 -14.203125 13.398438 -14.5 12.484375 -14.5 C 11.566406 -14.5 10.785156 -14.203125 10.140625 -13.609375 C 9.503906 -13.023438 9.1875 -12.289062 9.1875 -11.40625 L 9.1875 0 L 2.90625 0 L 2.90625 -19.65625 L 9.1875 -19.65625 L 9.1875 -17.25 C 9.875 -18.101562 10.703125 -18.78125 11.671875 -19.28125 C 12.640625 -19.789062 13.679688 -20.046875 14.796875 -20.046875 Z M 14.796875 -20.046875 "/></g></g></g><g fill="#2b4c9a" fill-opacity="1"><g transform="translate(256.188746, 346.812235)"><g><path d="M 16.859375 -33.65625 L 23.09375 -33.65625 L 23.09375 0 L 16.859375 0.046875 L 16.859375 -1.71875 C 16.140625 -1.0625 15.3125 -0.546875 14.375 -0.171875 C 13.4375 0.203125 12.394531 0.390625 11.25 0.390625 C 9.445312 0.390625 7.804688 -0.0664062 6.328125 -0.984375 C 4.859375 -1.898438 3.6875 -3.128906 2.8125 -4.671875 C 1.945312 -6.210938 1.515625 -7.929688 1.515625 -9.828125 C 1.515625 -11.722656 1.945312 -13.441406 2.8125 -14.984375 C 3.6875 -16.523438 4.859375 -17.753906 6.328125 -18.671875 C 7.804688 -19.585938 9.445312 -20.046875 11.25 -20.046875 C 12.394531 -20.046875 13.4375 -19.859375 14.375 -19.484375 C 15.3125 -19.109375 16.140625 -18.59375 16.859375 -17.9375 Z M 12.484375 -5.15625 C 13.753906 -5.15625 14.847656 -5.601562 15.765625 -6.5 C 16.691406 -7.40625 17.15625 -8.515625 17.15625 -9.828125 C 17.15625 -11.140625 16.691406 -12.242188 15.765625 -13.140625 C 14.847656 -14.046875 13.753906 -14.5 12.484375 -14.5 C 11.171875 -14.5 10.0625 -14.046875 9.15625 -13.140625 C 8.257812 -12.242188 7.8125 -11.140625 7.8125 -9.828125 C 7.8125 -8.515625 8.257812 -7.40625 9.15625 -6.5 C 10.0625 -5.601562 11.171875 -5.15625 12.484375 -5.15625 Z M 12.484375 -5.15625 "/></g></g></g><g fill="#2b4c9a" fill-opacity="1"><g transform="translate(281.395239, 346.812235)"><g><path d="M 9.234375 0.390625 C 7.503906 0.390625 5.832031 -0.015625 4.21875 -0.828125 C 2.613281 -1.648438 1.519531 -2.816406 0.9375 -4.328125 L 5.546875 -6.640625 C 6.003906 -5.816406 6.535156 -5.265625 7.140625 -4.984375 C 7.753906 -4.703125 8.320312 -4.5625 8.84375 -4.5625 C 9.363281 -4.5625 9.78125 -4.664062 10.09375 -4.875 C 10.40625 -5.09375 10.5625 -5.398438 10.5625 -5.796875 C 10.5625 -6.160156 10.390625 -6.476562 10.046875 -6.75 C 9.703125 -7.03125 9.085938 -7.335938 8.203125 -7.671875 C 7.453125 -7.960938 6.59375 -8.328125 5.625 -8.765625 C 4.65625 -9.210938 3.8125 -9.828125 3.09375 -10.609375 C 2.375 -11.398438 2.015625 -12.453125 2.015625 -13.765625 C 2.015625 -14.878906 2.316406 -15.910156 2.921875 -16.859375 C 3.523438 -17.804688 4.375 -18.570312 5.46875 -19.15625 C 6.570312 -19.75 7.863281 -20.046875 9.34375 -20.046875 C 10.71875 -20.046875 11.984375 -19.800781 13.140625 -19.3125 C 14.304688 -18.820312 15.25 -18.195312 15.96875 -17.4375 L 12.828125 -13.90625 C 12.535156 -14.269531 12.117188 -14.597656 11.578125 -14.890625 C 11.035156 -15.179688 10.4375 -15.328125 9.78125 -15.328125 C 9.257812 -15.328125 8.863281 -15.21875 8.59375 -15 C 8.332031 -14.789062 8.203125 -14.523438 8.203125 -14.203125 C 8.203125 -13.835938 8.375 -13.546875 8.71875 -13.328125 C 9.0625 -13.117188 9.59375 -12.867188 10.3125 -12.578125 C 11.269531 -12.222656 12.207031 -11.78125 13.125 -11.25 C 14.039062 -10.726562 14.804688 -10.046875 15.421875 -9.203125 C 16.046875 -8.367188 16.359375 -7.300781 16.359375 -6 C 16.359375 -4.164062 15.726562 -2.640625 14.46875 -1.421875 C 13.207031 -0.210938 11.460938 0.390625 9.234375 0.390625 Z M 9.234375 0.390625 "/></g></g></g><g fill="#2b4c9a" fill-opacity="1"><g transform="translate(91.282851, 367.08276)"><g><path d="M 5.65625 -5.234375 L 3.5625 -5.234375 L 3.5625 0 L 2.3125 0 L 2.3125 -5.234375 L 0.203125 -5.234375 L 0.203125 -6.203125 L 5.65625 -6.203125 Z M 5.65625 -5.234375 "/></g></g></g><g fill="#2b4c9a" fill-opacity="1"><g transform="translate(97.969895, 367.08276)"><g><path d="M 6.1875 -6.203125 L 6.1875 0 L 4.953125 0 L 4.953125 -2.546875 L 2.046875 -2.546875 L 2.046875 0 L 0.796875 0 L 0.796875 -6.203125 L 2.046875 -6.203125 L 2.046875 -3.53125 L 4.953125 -3.53125 L 4.953125 -6.203125 Z M 6.1875 -6.203125 "/></g></g></g><g fill="#2b4c9a" fill-opacity="1"><g transform="translate(105.817942, 367.08276)"><g><path d="M 5.28125 -0.984375 L 5.28125 0 L 0.796875 0 L 0.796875 -6.203125 L 5.1875 -6.203125 L 5.1875 -5.234375 L 2.046875 -5.234375 L 2.046875 -3.59375 L 4.96875 -3.59375 L 4.96875 -2.625 L 2.046875 -2.625 L 2.046875 -0.984375 Z M 5.28125 -0.984375 "/></g></g></g><g fill="#2b4c9a" fill-opacity="1"><g transform="translate(112.441987, 367.08276)"><g/></g></g><g fill="#2b4c9a" fill-opacity="1"><g transform="translate(115.268001, 367.08276)"><g><path d="M 3.859375 -6.171875 C 4.347656 -6.109375 4.75 -5.914062 5.0625 -5.59375 C 5.375 -5.269531 5.53125 -4.832031 5.53125 -4.28125 C 5.53125 -3.726562 5.367188 -3.285156 5.046875 -2.953125 C 4.734375 -2.628906 4.335938 -2.441406 3.859375 -2.390625 C 3.597656 -2.359375 3.296875 -2.34375 2.953125 -2.34375 L 2.046875 -2.34375 L 2.046875 0 L 0.796875 0 L 0.796875 -6.203125 L 2.953125 -6.203125 C 3.296875 -6.203125 3.597656 -6.191406 3.859375 -6.171875 Z M 3.484375 -3.34375 C 3.972656 -3.414062 4.21875 -3.722656 4.21875 -4.265625 C 4.21875 -4.816406 3.972656 -5.128906 3.484375 -5.203125 C 3.347656 -5.222656 3.164062 -5.234375 2.9375 -5.234375 L 2.046875 -5.234375 L 2.046875 -3.328125 L 2.9375 -3.328125 C 3.164062 -3.328125 3.347656 -3.332031 3.484375 -3.34375 Z M 3.484375 -3.34375 "/></g></g></g><g fill="#2b4c9a" fill-opacity="1"><g transform="translate(121.955046, 367.08276)"><g><path d="M 5.28125 -0.984375 L 5.28125 0 L 0.796875 0 L 0.796875 -6.203125 L 5.1875 -6.203125 L 5.1875 -5.234375 L 2.046875 -5.234375 L 2.046875 -3.59375 L 4.96875 -3.59375 L 4.96875 -2.625 L 2.046875 -2.625 L 2.046875 -0.984375 Z M 5.28125 -0.984375 "/></g></g></g><g fill="#2b4c9a" fill-opacity="1"><g transform="translate(128.579092, 367.08276)"><g><path d="M 5.296875 -1.5625 C 5.378906 -0.820312 5.53125 -0.300781 5.75 0 L 4.390625 0 C 4.242188 -0.414062 4.144531 -0.878906 4.09375 -1.390625 C 4 -2.085938 3.71875 -2.457031 3.25 -2.5 C 3.132812 -2.5 2.972656 -2.5 2.765625 -2.5 L 2.046875 -2.5 L 2.046875 0 L 0.796875 0 L 0.796875 -6.203125 L 3.0625 -6.203125 C 3.40625 -6.203125 3.707031 -6.191406 3.96875 -6.171875 C 4.457031 -6.109375 4.847656 -5.941406 5.140625 -5.671875 C 5.441406 -5.410156 5.59375 -5.023438 5.59375 -4.515625 C 5.59375 -4.128906 5.484375 -3.804688 5.265625 -3.546875 C 5.054688 -3.296875 4.765625 -3.113281 4.390625 -3 C 4.921875 -2.800781 5.222656 -2.320312 5.296875 -1.5625 Z M 2.046875 -3.421875 L 2.890625 -3.421875 C 3.140625 -3.421875 3.3125 -3.425781 3.40625 -3.4375 C 4 -3.488281 4.296875 -3.785156 4.296875 -4.328125 C 4.296875 -4.609375 4.222656 -4.816406 4.078125 -4.953125 C 3.941406 -5.085938 3.738281 -5.175781 3.46875 -5.21875 C 3.332031 -5.226562 3.160156 -5.234375 2.953125 -5.234375 L 2.046875 -5.234375 Z M 2.046875 -3.421875 "/></g></g></g><g fill="#2b4c9a" fill-opacity="1"><g transform="translate(135.545133, 367.08276)"><g><path d="M 2.046875 -5.234375 L 2.046875 -3.59375 L 4.875 -3.59375 L 4.875 -2.625 L 2.046875 -2.625 L 2.046875 0 L 0.796875 0 L 0.796875 -6.203125 L 5.1875 -6.203125 L 5.1875 -5.234375 Z M 2.046875 -5.234375 "/></g></g></g><g fill="#2b4c9a" fill-opacity="1"><g transform="translate(141.962167, 367.08276)"><g><path d="M 5.28125 -0.984375 L 5.28125 0 L 0.796875 0 L 0.796875 -6.203125 L 5.1875 -6.203125 L 5.1875 -5.234375 L 2.046875 -5.234375 L 2.046875 -3.59375 L 4.96875 -3.59375 L 4.96875 -2.625 L 2.046875 -2.625 L 2.046875 -0.984375 Z M 5.28125 -0.984375 "/></g></g></g><g fill="#2b4c9a" fill-opacity="1"><g transform="translate(148.586213, 367.08276)"><g><path d="M 3.46875 -6.34375 C 4.28125 -6.34375 4.910156 -6.144531 5.359375 -5.75 C 5.816406 -5.351562 6.078125 -4.832031 6.140625 -4.1875 L 6.15625 -4.109375 L 4.90625 -4.109375 L 4.890625 -4.1875 C 4.734375 -5 4.253906 -5.40625 3.453125 -5.40625 C 2.941406 -5.40625 2.53125 -5.203125 2.21875 -4.796875 C 1.914062 -4.390625 1.765625 -3.835938 1.765625 -3.140625 C 1.765625 -2.390625 1.914062 -1.8125 2.21875 -1.40625 C 2.53125 -1 2.929688 -0.796875 3.421875 -0.796875 C 3.816406 -0.796875 4.132812 -0.90625 4.375 -1.125 C 4.625 -1.351562 4.789062 -1.664062 4.875 -2.0625 L 4.890625 -2.15625 L 6.125 -2.15625 L 6.109375 -2.0625 C 6.046875 -1.382812 5.769531 -0.847656 5.28125 -0.453125 C 4.789062 -0.0664062 4.15625 0.125 3.375 0.125 C 2.5 0.125 1.789062 -0.160156 1.25 -0.734375 C 0.71875 -1.316406 0.453125 -2.09375 0.453125 -3.0625 C 0.453125 -4.0625 0.734375 -4.859375 1.296875 -5.453125 C 1.867188 -6.046875 2.59375 -6.34375 3.46875 -6.34375 Z M 3.46875 -6.34375 "/></g></g></g><g fill="#2b4c9a" fill-opacity="1"><g transform="translate(156.128258, 367.08276)"><g><path d="M 5.65625 -5.234375 L 3.5625 -5.234375 L 3.5625 0 L 2.3125 0 L 2.3125 -5.234375 L 0.203125 -5.234375 L 0.203125 -6.203125 L 5.65625 -6.203125 Z M 5.65625 -5.234375 "/></g></g></g><g fill="#2b4c9a" fill-opacity="1"><g transform="translate(162.815304, 367.08276)"><g/></g></g><g fill="#2b4c9a" fill-opacity="1"><g transform="translate(165.641319, 367.08276)"><g><path d="M 3.46875 -6.34375 C 4.28125 -6.34375 4.910156 -6.144531 5.359375 -5.75 C 5.816406 -5.351562 6.078125 -4.832031 6.140625 -4.1875 L 6.15625 -4.109375 L 4.90625 -4.109375 L 4.890625 -4.1875 C 4.734375 -5 4.253906 -5.40625 3.453125 -5.40625 C 2.941406 -5.40625 2.53125 -5.203125 2.21875 -4.796875 C 1.914062 -4.390625 1.765625 -3.835938 1.765625 -3.140625 C 1.765625 -2.390625 1.914062 -1.8125 2.21875 -1.40625 C 2.53125 -1 2.929688 -0.796875 3.421875 -0.796875 C 3.816406 -0.796875 4.132812 -0.90625 4.375 -1.125 C 4.625 -1.351562 4.789062 -1.664062 4.875 -2.0625 L 4.890625 -2.15625 L 6.125 -2.15625 L 6.109375 -2.0625 C 6.046875 -1.382812 5.769531 -0.847656 5.28125 -0.453125 C 4.789062 -0.0664062 4.15625 0.125 3.375 0.125 C 2.5 0.125 1.789062 -0.160156 1.25 -0.734375 C 0.71875 -1.316406 0.453125 -2.09375 0.453125 -3.0625 C 0.453125 -4.0625 0.734375 -4.859375 1.296875 -5.453125 C 1.867188 -6.046875 2.59375 -6.34375 3.46875 -6.34375 Z M 3.46875 -6.34375 "/></g></g></g><g fill="#2b4c9a" fill-opacity="1"><g transform="translate(173.183364, 367.08276)"><g><path d="M 4.171875 -1.875 L 2.078125 -1.875 L 1.453125 0 L 0.140625 0 L 2.375 -6.203125 L 3.9375 -6.203125 L 6.125 0 L 4.78125 0 Z M 3.125 -5.140625 L 2.390625 -2.859375 L 3.859375 -2.859375 Z M 3.125 -5.140625 "/></g></g></g><g fill="#2b4c9a" fill-opacity="1"><g transform="translate(180.347411, 367.08276)"><g><path d="M 6.25 0 L 4.546875 0 L 2 -4.71875 C 2.03125 -4.15625 2.046875 -3.519531 2.046875 -2.8125 L 2.046875 0 L 0.796875 0 L 0.796875 -6.203125 L 2.453125 -6.203125 L 5.0625 -1.40625 C 5.03125 -1.957031 5.015625 -2.609375 5.015625 -3.359375 L 5.015625 -6.203125 L 6.25 -6.203125 Z M 6.25 0 "/></g></g></g><g fill="#2b4c9a" fill-opacity="1"><g transform="translate(188.26746, 367.08276)"><g><path d="M 3.734375 -6.171875 C 4.503906 -6.078125 5.125 -5.78125 5.59375 -5.28125 C 6.0625 -4.789062 6.296875 -4.09375 6.296875 -3.1875 C 6.296875 -2.269531 6.050781 -1.535156 5.5625 -0.984375 C 5.082031 -0.441406 4.46875 -0.125 3.71875 -0.03125 C 3.507812 -0.0078125 3.242188 0 2.921875 0 L 0.796875 0 L 0.796875 -6.203125 L 2.9375 -6.203125 C 3.257812 -6.203125 3.523438 -6.191406 3.734375 -6.171875 Z M 3.4375 -1.015625 C 3.914062 -1.066406 4.289062 -1.28125 4.5625 -1.65625 C 4.84375 -2.039062 4.984375 -2.546875 4.984375 -3.171875 C 4.984375 -3.765625 4.847656 -4.234375 4.578125 -4.578125 C 4.304688 -4.929688 3.9375 -5.140625 3.46875 -5.203125 C 3.28125 -5.222656 3.054688 -5.234375 2.796875 -5.234375 L 2.046875 -5.234375 L 2.046875 -0.984375 L 2.78125 -0.984375 C 3.082031 -0.984375 3.300781 -0.992188 3.4375 -1.015625 Z M 3.4375 -1.015625 "/></g></g></g><g fill="#2b4c9a" fill-opacity="1"><g transform="translate(195.926509, 367.08276)"><g><path d="M 2.046875 0 L 0.796875 0 L 0.796875 -6.203125 L 2.046875 -6.203125 Z M 2.046875 0 "/></g></g></g><g fill="#2b4c9a" fill-opacity="1"><g transform="translate(199.634532, 367.08276)"><g><path d="M 3.734375 -6.171875 C 4.503906 -6.078125 5.125 -5.78125 5.59375 -5.28125 C 6.0625 -4.789062 6.296875 -4.09375 6.296875 -3.1875 C 6.296875 -2.269531 6.050781 -1.535156 5.5625 -0.984375 C 5.082031 -0.441406 4.46875 -0.125 3.71875 -0.03125 C 3.507812 -0.0078125 3.242188 0 2.921875 0 L 0.796875 0 L 0.796875 -6.203125 L 2.9375 -6.203125 C 3.257812 -6.203125 3.523438 -6.191406 3.734375 -6.171875 Z M 3.4375 -1.015625 C 3.914062 -1.066406 4.289062 -1.28125 4.5625 -1.65625 C 4.84375 -2.039062 4.984375 -2.546875 4.984375 -3.171875 C 4.984375 -3.765625 4.847656 -4.234375 4.578125 -4.578125 C 4.304688 -4.929688 3.9375 -5.140625 3.46875 -5.203125 C 3.28125 -5.222656 3.054688 -5.234375 2.796875 -5.234375 L 2.046875 -5.234375 L 2.046875 -0.984375 L 2.78125 -0.984375 C 3.082031 -0.984375 3.300781 -0.992188 3.4375 -1.015625 Z M 3.4375 -1.015625 "/></g></g></g><g fill="#2b4c9a" fill-opacity="1"><g transform="translate(207.293582, 367.08276)"><g><path d="M 4.171875 -1.875 L 2.078125 -1.875 L 1.453125 0 L 0.140625 0 L 2.375 -6.203125 L 3.9375 -6.203125 L 6.125 0 L 4.78125 0 Z M 3.125 -5.140625 L 2.390625 -2.859375 L 3.859375 -2.859375 Z M 3.125 -5.140625 "/></g></g></g><g fill="#2b4c9a" fill-opacity="1"><g transform="translate(214.457628, 367.08276)"><g><path d="M 5.65625 -5.234375 L 3.5625 -5.234375 L 3.5625 0 L 2.3125 0 L 2.3125 -5.234375 L 0.203125 -5.234375 L 0.203125 -6.203125 L 5.65625 -6.203125 Z M 5.65625 -5.234375 "/></g></g></g><g fill="#2b4c9a" fill-opacity="1"><g transform="translate(221.144674, 367.08276)"><g><path d="M 5.28125 -0.984375 L 5.28125 0 L 0.796875 0 L 0.796875 -6.203125 L 5.1875 -6.203125 L 5.1875 -5.234375 L 2.046875 -5.234375 L 2.046875 -3.59375 L 4.96875 -3.59375 L 4.96875 -2.625 L 2.046875 -2.625 L 2.046875 -0.984375 Z M 5.28125 -0.984375 "/></g></g></g><g fill="#2b4c9a" fill-opacity="1"><g transform="translate(227.76872, 367.08276)"><g/></g></g><g fill="#2b4c9a" fill-opacity="1"><g transform="translate(230.594735, 367.08276)"><g><path d="M 2.046875 0 L 0.796875 0 L 0.796875 -6.203125 L 2.046875 -6.203125 Z M 2.046875 0 "/></g></g></g><g fill="#2b4c9a" fill-opacity="1"><g transform="translate(234.302758, 367.08276)"><g><path d="M 2.859375 -6.34375 C 3.566406 -6.34375 4.109375 -6.164062 4.484375 -5.8125 C 4.859375 -5.457031 5.082031 -4.984375 5.15625 -4.390625 L 3.890625 -4.390625 C 3.847656 -4.710938 3.738281 -4.960938 3.5625 -5.140625 C 3.382812 -5.316406 3.132812 -5.40625 2.8125 -5.40625 C 2.5625 -5.40625 2.351562 -5.34375 2.1875 -5.21875 C 2.019531 -5.09375 1.9375 -4.910156 1.9375 -4.671875 C 1.9375 -4.410156 2.035156 -4.203125 2.234375 -4.046875 C 2.429688 -3.898438 2.773438 -3.769531 3.265625 -3.65625 C 3.941406 -3.5 4.441406 -3.257812 4.765625 -2.9375 C 5.085938 -2.625 5.25 -2.210938 5.25 -1.703125 C 5.25 -1.140625 5.023438 -0.691406 4.578125 -0.359375 C 4.140625 -0.0351562 3.597656 0.125 2.953125 0.125 C 2.191406 0.125 1.585938 -0.0390625 1.140625 -0.375 C 0.691406 -0.707031 0.4375 -1.195312 0.375 -1.84375 L 1.640625 -1.84375 C 1.710938 -1.507812 1.863281 -1.25 2.09375 -1.0625 C 2.332031 -0.882812 2.613281 -0.796875 2.9375 -0.796875 C 3.21875 -0.796875 3.457031 -0.867188 3.65625 -1.015625 C 3.851562 -1.160156 3.953125 -1.347656 3.953125 -1.578125 C 3.953125 -1.847656 3.859375 -2.0625 3.671875 -2.21875 C 3.484375 -2.382812 3.160156 -2.519531 2.703125 -2.625 C 2.015625 -2.789062 1.5 -3.015625 1.15625 -3.296875 C 0.8125 -3.578125 0.640625 -3.984375 0.640625 -4.515625 C 0.640625 -5.066406 0.851562 -5.507812 1.28125 -5.84375 C 1.71875 -6.175781 2.242188 -6.34375 2.859375 -6.34375 Z M 2.859375 -6.34375 "/></g></g></g><g fill="#2b4c9a" fill-opacity="1"><g transform="translate(240.854798, 367.08276)"><g/></g></g><g fill="#2b4c9a" fill-opacity="1"><g transform="translate(243.680813, 367.08276)"><g><path d="M 6.1875 -6.203125 L 6.1875 0 L 4.953125 0 L 4.953125 -2.546875 L 2.046875 -2.546875 L 2.046875 0 L 0.796875 0 L 0.796875 -6.203125 L 2.046875 -6.203125 L 2.046875 -3.53125 L 4.953125 -3.53125 L 4.953125 -6.203125 Z M 6.1875 -6.203125 "/></g></g></g><g fill="#2b4c9a" fill-opacity="1"><g transform="translate(251.528862, 367.08276)"><g><path d="M 5.28125 -0.984375 L 5.28125 0 L 0.796875 0 L 0.796875 -6.203125 L 5.1875 -6.203125 L 5.1875 -5.234375 L 2.046875 -5.234375 L 2.046875 -3.59375 L 4.96875 -3.59375 L 4.96875 -2.625 L 2.046875 -2.625 L 2.046875 -0.984375 Z M 5.28125 -0.984375 "/></g></g></g><g fill="#2b4c9a" fill-opacity="1"><g transform="translate(258.152908, 367.08276)"><g><path d="M 5.296875 -1.5625 C 5.378906 -0.820312 5.53125 -0.300781 5.75 0 L 4.390625 0 C 4.242188 -0.414062 4.144531 -0.878906 4.09375 -1.390625 C 4 -2.085938 3.71875 -2.457031 3.25 -2.5 C 3.132812 -2.5 2.972656 -2.5 2.765625 -2.5 L 2.046875 -2.5 L 2.046875 0 L 0.796875 0 L 0.796875 -6.203125 L 3.0625 -6.203125 C 3.40625 -6.203125 3.707031 -6.191406 3.96875 -6.171875 C 4.457031 -6.109375 4.847656 -5.941406 5.140625 -5.671875 C 5.441406 -5.410156 5.59375 -5.023438 5.59375 -4.515625 C 5.59375 -4.128906 5.484375 -3.804688 5.265625 -3.546875 C 5.054688 -3.296875 4.765625 -3.113281 4.390625 -3 C 4.921875 -2.800781 5.222656 -2.320312 5.296875 -1.5625 Z M 2.046875 -3.421875 L 2.890625 -3.421875 C 3.140625 -3.421875 3.3125 -3.425781 3.40625 -3.4375 C 4 -3.488281 4.296875 -3.785156 4.296875 -4.328125 C 4.296875 -4.609375 4.222656 -4.816406 4.078125 -4.953125 C 3.941406 -5.085938 3.738281 -5.175781 3.46875 -5.21875 C 3.332031 -5.226562 3.160156 -5.234375 2.953125 -5.234375 L 2.046875 -5.234375 Z M 2.046875 -3.421875 "/></g></g></g><g fill="#2b4c9a" fill-opacity="1"><g transform="translate(265.118949, 367.08276)"><g><path d="M 5.28125 -0.984375 L 5.28125 0 L 0.796875 0 L 0.796875 -6.203125 L 5.1875 -6.203125 L 5.1875 -5.234375 L 2.046875 -5.234375 L 2.046875 -3.59375 L 4.96875 -3.59375 L 4.96875 -2.625 L 2.046875 -2.625 L 2.046875 -0.984375 Z M 5.28125 -0.984375 "/></g></g></g></svg>